<svg id="Layer_1" data-name="Layer 1" xmlns="http://www.w3.org/2000/svg" viewBox="0 0 266 266"><defs><style>.cls-1{fill:#22b573;}.cls-2{fill:#fff;}</style></defs><title>harvest-logo</title><path class="cls-1" d="M48.76,156.13H219c-.64,3.71-1.24,7.32-1.89,10.93-2.38,13.43-4.84,26.85-7.14,40.29-1,5.79-3.53,10.42-9.14,12.7a18.05,18.05,0,0,1-6.61,1.3q-60.21.1-120.44,0c-8.07,0-14-5.07-15.47-13.08q-4.76-25.45-9.48-50.92A11.83,11.83,0,0,1,48.76,156.13Zm138.75,14.58c-.2-.47-.31-1.47-.84-1.83a5.26,5.26,0,0,0-3.06-1.07c-1.64.14-2.17,1.59-2.42,3.09-1,6.13-2.09,12.25-3.13,18.38q-1.41,8.33-2.82,16.66a3,3,0,0,0,3.73,3.69c1.7-.41,2.25-1.69,2.51-3.26,1.32-7.89,2.68-15.78,4-23.67C186.16,178.81,186.8,174.91,187.51,170.71ZM92.86,206c0-.25-.11-.78-.2-1.29l-4-23.36q-.95-5.61-1.91-11.21a2.69,2.69,0,0,0-2.19-2.4,2.58,2.58,0,0,0-3.08,1.37,6.9,6.9,0,0,0-.56,3.44c.34,2.87.93,5.71,1.42,8.56,1.46,8.57,2.9,17.14,4.39,25.7.36,2.08,1.67,3.11,3.46,2.9C91.7,209.55,92.86,208,92.86,206Zm44.23-17.38c0-5.26,0-10.53,0-15.8a3.35,3.35,0,0,0-3-3.6c-1.71,0-3,1.45-3.07,3.53,0,.31,0,.63,0,1q0,14.92,0,29.86a7,7,0,0,0,.15,1.89,2.93,2.93,0,0,0,5.71.21,6.51,6.51,0,0,0,.24-2C137.1,198.64,137.09,193.64,137.09,188.63Z"/><path class="cls-1" d="M134,129h87.86c3.85,0,7.22,1,9.42,4.4,3.44,5.34,1.86,14.34-5.8,16a18.33,18.33,0,0,1-3.92.35q-87.39,0-174.77,0c-4.5,0-8.16-1.51-10.35-5.67A10.35,10.35,0,0,1,45,129c.68,0,1.37,0,2,0Z"/><path class="cls-1" d="M111.41,101c-2.5,2.68-4.91,5.26-7.3,7.85a13.48,13.48,0,0,0-1.61,1.94,2.86,2.86,0,0,0,.4,3.75,2.33,2.33,0,0,0,3.41.18c1.55-1.35,3-2.78,4.46-4.24s3-3.23,4.65-5L124,115.8c-3.44,2.22-6.73,4.37-10,6.45a3.34,3.34,0,0,1-1.68.29q-20.49,0-41,0a4.19,4.19,0,0,1-2.28-.8c-2-1.52-3.88-3.25-5.92-4.75-1.27-.94-1.09-1.64-.12-2.62,1.85-1.87,3.66-3.79,5.45-5.73a14.1,14.1,0,0,0,1.54-2c.71-1.12.9-2.22-.22-3.27-1.32-1.23-2.46-1.54-3.82-.56A17.81,17.81,0,0,0,63,105.62c-1.75,2-3.43,4.14-5.11,6.24-.64.8-1.18.8-2,.15-2.9-2.45-5.92-4.77-8.75-7.3a10.91,10.91,0,0,1-.46-15.4q10.61-11,21.55-21.64c5-4.81,11.86-4.57,16.37.62,4.35,5,8.32,10.35,12.53,15.49,4.37,5.35,8.82,10.62,13.24,15.93C110.69,100.07,111,100.45,111.41,101Z"/><path class="cls-1" d="M125.48,61.14c-1.33-1.87-2.46-3.5-3.64-5.09s-1.4-2.78-.47-4c1.15-1.53,2.83-1.7,4.41-.41a15.86,15.86,0,0,1,4.47,6.42c.92,2.18.91,2.18,3.49,1.43,0-1.31-.08-2.68,0-4a2.92,2.92,0,0,1,3.09-2.91,2.88,2.88,0,0,1,2.92,2.91c.08,1.36,0,2.72,0,4,2.46.87,2.32.73,3.41-1.26a36.37,36.37,0,0,1,4.4-6.45,2.7,2.7,0,0,1,4.2-.12c1.32,1.26,1.28,2.41,0,4.18s-2.39,3.37-3.56,5c2.58,1.36,4.85,2.34,6.88,3.68C161,68.4,163.13,74.2,163,81a32.89,32.89,0,0,1-3.58,13.82,4.33,4.33,0,0,1-1.13,1.48,119,119,0,0,1-23,15c-1.7.81-3.43,1.58-5.18,2.38a3.59,3.59,0,0,1-.53-.72c-.67-1.92-2.09-3-3.72-4.22-10.54-7.69-16-18-15.06-31.22.59-7.9,5.43-12.88,12.67-15.66C124,61.65,124.49,61.49,125.48,61.14Z"/><path class="cls-1" d="M197.16,104.24c-2,1.2-3.76,2.21-5.47,3.29-2.32,1.47-4.59,3-6.9,4.47a2.67,2.67,0,0,1-3.8-.66,3.52,3.52,0,0,1-.75-2.43c.45-3,1.13-5.89,1.71-8.83.38-1.94.74-3.89,1.17-6.13-3,.58-5.63,1.12-8.3,1.62-2.12.4-4.24.83-6.38,1.12-2.42.32-3.25-.08-4-1.64s-.51-2.5,1.34-4.11c3-2.55,6-4.93,9-7.45,4.92-4.14,9.84-8.29,14.68-12.52,6-5.21,15.87-6.4,22.33-2.41,9.18,5.66,11.9,15.74,7.74,25-4.46,10-9,19.87-13.57,29.78a5.24,5.24,0,0,1-1.95,2.34c-1.89,1-4-.32-4.4-2.82-.48-3.12-.72-6.28-1.13-9.41C198.13,110.51,197.66,107.57,197.16,104.24Z"/><path class="cls-1" d="M175.47,101.6c-.44,2.24-.87,4.14-1.18,6.06-.82,5.14,1.7,9.3,6.49,10.62,3.13.85,5.92-.13,8.54-1.83.87-.57,1.76-1.1,2.94-1.82.42,2.88.79,5.44,1.18,8.14h-67.2l-.14-.32c.6-.33,1.18-.69,1.79-1,5.73-2.78,11.67-5.21,17.15-8.41s10.55-7.14,15.75-10.83a2.13,2.13,0,0,1,2.65-.26c2.69,1.42,5.53.81,8.34.28C172.9,102,174,101.85,175.47,101.6Z"/><path class="cls-1" d="M49.23,64.37c-.4-2.17-.83-4.33-1.19-6.5a9.77,9.77,0,0,1-.13-2.35,2.84,2.84,0,0,1,2.86-2.82,2.54,2.54,0,0,1,3,2.12c.55,2.62.84,5.3,1.23,8,.43,2.92.84,5.83,1.21,8.38l-5,4.43Q46.25,70.5,41.18,65.4c-1.89-1.9-3.82-3.78-5.7-5.7a3,3,0,0,1-.08-4.59c1.31-1.27,2.82-1.2,4.29.27,3.05,3,6.08,6.12,9.11,9.18Z"/><path class="cls-1" d="M218.28,65.56,213,62.19c.64-2.95,1.22-5.92,1.94-8.85a3,3,0,0,1,5.9,1.24C220.13,58.17,219.19,61.72,218.28,65.56Z"/><path class="cls-2" d="M187.51,170.71c-.71,4.2-1.35,8.1-2,12-1.34,7.89-2.7,15.78-4,23.67-.26,1.57-.81,2.85-2.51,3.26a3,3,0,0,1-3.73-3.69q1.39-8.34,2.82-16.66c1-6.13,2.1-12.25,3.13-18.38.25-1.5.78-3,2.42-3.09a5.26,5.26,0,0,1,3.06,1.07C187.2,169.24,187.31,170.24,187.51,170.71Z"/><path class="cls-2" d="M92.86,206c0,2-1.16,3.54-2.63,3.71-1.79.21-3.1-.82-3.46-2.9-1.49-8.56-2.93-17.13-4.39-25.7-.49-2.85-1.08-5.69-1.42-8.56a6.9,6.9,0,0,1,.56-3.44,2.58,2.58,0,0,1,3.08-1.37,2.69,2.69,0,0,1,2.19,2.4q1,5.59,1.91,11.21l4,23.36C92.75,205.23,92.82,205.76,92.86,206Z"/><path class="cls-2" d="M137.09,188.63c0,5,0,10,0,15a6.51,6.51,0,0,1-.24,2,2.93,2.93,0,0,1-5.71-.21,7,7,0,0,1-.15-1.89q0-14.92,0-29.86c0-.32,0-.64,0-1,.1-2.08,1.36-3.53,3.07-3.53a3.35,3.35,0,0,1,3,3.6C137.12,178.1,137.09,183.37,137.09,188.63Z"/><path class="cls-1" d="M243,259H25A17,17,0,0,1,8,242V24A17,17,0,0,1,25,7H243a17,17,0,0,1,17,17V242A17,17,0,0,1,243,259ZM25,17a7,7,0,0,0-7,7V242a7,7,0,0,0,7,7H243a7,7,0,0,0,7-7V24a7,7,0,0,0-7-7Z"/></svg>